<svg width="133" height="19" viewBox="0 0 133 19" fill="none" xmlns="http://www.w3.org/2000/svg"><path d="M2.001 9.343c0 .7.007 1.385.028 2.041.014.657.076 1.278.173 1.863.097.585.256 1.114.464 1.592.215.478.513.892.9 1.242.388.35.88.614 1.468.806.589.193 1.316.286 2.182.286h.311c.866 0 1.593-.093 2.189-.286.595-.192 1.087-.457 1.475-.806.387-.35.685-.764.9-1.242a6.52 6.52 0 00.464-1.592c.097-.585.16-1.199.173-1.863.014-.656.028-1.334.028-2.041V.885c0-.314.11-.535.339-.67.222-.136.485-.208.79-.208.325 0 .56.064.692.186.132.121.2.3.2.535v8.358c0 .842-.02 1.677-.048 2.491a15.25 15.25 0 01-.27 2.327 8.216 8.216 0 01-.678 2.034 4.896 4.896 0 01-1.275 1.613c-.54.457-1.225.807-2.056 1.064S8.615 19 7.424 19H7.36c-1.19 0-2.202-.128-3.026-.385-.831-.257-1.517-.614-2.064-1.064a4.833 4.833 0 01-1.274-1.62A8.68 8.68 0 01.32 13.89a13.7 13.7 0 01-.27-2.327A73.605 73.605 0 010 9.072V.72C0 .492.07.314.2.186.333.064.569 0 .894 0c.305 0 .568.071.79.207.221.136.34.364.34.67v8.466H2z" fill="url(#paint0_linear)"/><path d="M47.384 0c.274 0 .445.058.527.18.076.123.117.367.117.735 0 .216-.035.389-.096.511a.693.693 0 01-.233.274.697.697 0 01-.267.108 1.378 1.378 0 01-.212.021h-5.643v16.58c0 .245-.103.404-.308.476a1.92 1.92 0 01-.692.115c-.267 0-.5-.043-.698-.122-.199-.08-.301-.238-.301-.469V1.83h-5.554c-.075 0-.158-.014-.247-.036a.531.531 0 01-.246-.136.793.793 0 01-.199-.281 1.123 1.123 0 01-.082-.461c0-.195.007-.36.027-.476a.664.664 0 01.09-.28.314.314 0 01.191-.13A1.85 1.85 0 0133.88 0h13.504zm8.68 1.84h-3.772v16.548a.473.473 0 01-.084.295.585.585 0 01-.232.173 1.108 1.108 0 01-.33.086 3.098 3.098 0 01-.378.022c-.273 0-.512-.036-.715-.108-.203-.072-.309-.23-.309-.468V.89c0-.244.106-.453.323-.626.217-.172.533-.259.946-.259h4.544c1.129-.028 2.18.058 3.169.252.989.194 1.844.518 2.573.972a5.044 5.044 0 011.725 1.798c.42.741.63 1.655.63 2.727v.151c0 .698-.09 1.331-.266 1.893a4.785 4.785 0 01-.764 1.474 4.79 4.79 0 01-1.206 1.087c-.47.302-.995.554-1.57.741l3.835 6.993c.105.188.126.339.07.46a.588.588 0 01-.294.274 1.61 1.61 0 01-.477.137 4.13 4.13 0 01-.477.036 1.48 1.48 0 01-.547-.108.786.786 0 01-.414-.374l-3.772-6.95c-.33.043-.666.072-1.002.086-.337.014-.687.022-1.052.022h-4.887a.605.605 0 01-.519-.252c-.119-.166-.175-.389-.175-.677 0-.295.063-.525.182-.676.12-.158.295-.237.526-.237h4.901c.919 0 1.739-.072 2.461-.209.722-.137 1.34-.36 1.844-.662.505-.302.89-.698 1.157-1.173.273-.482.407-1.065.407-1.755v-.36c0-.597-.106-1.137-.323-1.604a2.943 2.943 0 00-1.024-1.195c-.47-.324-1.072-.575-1.823-.748-.743-.173-1.647-.26-2.706-.26h-.175V1.84z" fill="#000"/><path fill-rule="evenodd" clip-rule="evenodd" d="M69.873 14.685h10.22l1.226 3.356c.078.236.17.422.276.558.106.13.22.23.34.287.12.057.248.093.383.1.142.007.284.014.432.014a.915.915 0 00.369-.072.578.578 0 00.27-.236.916.916 0 00.105-.43c0-.178-.042-.4-.127-.657L77.662 1.853a4.09 4.09 0 00-.454-.951 2.144 2.144 0 00-.545-.558 1.97 1.97 0 00-.645-.272A3.55 3.55 0 0075.274 0h-.532a3.55 3.55 0 00-.758.072 1.77 1.77 0 00-.645.272 1.94 1.94 0 00-.546.558 4.403 4.403 0 00-.453.951l-5.705 15.752a2.02 2.02 0 00-.135.658c0 .179.035.322.1.43a.563.563 0 00.276.235.95.95 0 00.375.072c.149 0 .298-.007.432-.014a.959.959 0 00.723-.387c.107-.129.199-.315.277-.558l1.19-3.356zm9.617-1.668h-9.028L74.21 2.533c.099-.264.191-.45.29-.565a.49.49 0 01.355-.179h.262a.476.476 0 01.347.179c.1.107.191.3.29.565l3.735 10.484z" fill="#000"/><path d="M104.686 18.993a1.75 1.75 0 01-.644-.11 1.05 1.05 0 01-.428-.159c-.115-.08-.17-.21-.17-.392V.908c0-.254.109-.465.319-.647.211-.174.523-.261.923-.261h9.738c.326 0 .564 0 .713.007.149.008.237.008.258.008.169.007.312.101.434.276.115.174.176.399.176.66 0 .233-.04.414-.122.538a.672.672 0 01-.305.261 1.196 1.196 0 01-.4.095c-.143.007-.279.014-.408.014h-9.344v6.61h7.512c.204 0 .346 0 .434.007.082.007.143.007.163.007.17.007.319.095.448.262.129.16.197.392.197.675 0 .174-.027.312-.075.429a.79.79 0 01-.19.276.63.63 0 01-.244.152.81.81 0 01-.244.051h-8.001v6.813h9.344c.129 0 .265.007.408.014.142.008.278.044.4.095a.72.72 0 01.305.261c.082.124.122.298.122.538 0 .261-.061.479-.176.66-.115.175-.265.27-.434.276-.041 0-.116 0-.224.008-.109.007-.231.007-.367.007h-10.118v-.007zM124.781 1.84h-3.773v16.548a.473.473 0 01-.084.295.583.583 0 01-.231.173 1.103 1.103 0 01-.33.086 3.236 3.236 0 01-.378.022c-.274 0-.512-.036-.715-.108-.204-.072-.309-.23-.309-.468V.89c0-.244.105-.453.323-.626.217-.172.533-.259.946-.259h4.544c1.128-.028 2.18.058 3.169.252.988.194 1.844.518 2.573.972a5.049 5.049 0 011.725 1.798c.42.741.631 1.655.631 2.727v.151a6.36 6.36 0 01-.267 1.893 4.768 4.768 0 01-.764 1.474c-.33.425-.736.785-1.206 1.087a6.78 6.78 0 01-1.571.741l3.836 6.993c.105.188.126.339.07.46a.585.585 0 01-.295.274c-.14.065-.301.115-.476.137a4.15 4.15 0 01-.477.036c-.183 0-.365-.036-.547-.108a.787.787 0 01-.414-.374l-3.772-6.95c-.329.043-.666.072-1.002.086-.337.014-.688.022-1.052.022h-4.887a.606.606 0 01-.519-.252c-.119-.166-.175-.389-.175-.677 0-.295.063-.525.182-.676.119-.158.295-.237.526-.237h4.901c.918 0 1.739-.072 2.461-.209.722-.137 1.339-.36 1.844-.662.505-.302.89-.698 1.157-1.173.273-.482.406-1.065.406-1.755v-.36c0-.597-.105-1.137-.322-1.604a2.947 2.947 0 00-1.024-1.195c-.47-.324-1.073-.575-1.823-.748-.743-.173-1.647-.26-2.706-.26h-.175V1.84z" fill="#000"/><path d="M31.223 3.044a4.707 4.707 0 00-1.546-1.789c-.666-.454-1.463-.779-2.39-.973C26.351.087 25.32-.007 24.194 0h-4.466c-.412 0-.721.087-.934.26-.213.173-.323.382-.323.628V1.4c0 .252.192.447.426.447h1.573v-.014h3.71c.014 0 .034 0 .055.007.02.007.048 0 .082-.007h.042c1.05 0 1.93.086 2.624.26.694.172 1.25.418 1.67.75.412.324.707.728.872 1.197.165.469.247 1.01.247 1.608v.361c0 1.342-.426 2.301-1.278 2.893-.852.591-2.143.894-3.867.923h-1.141c-.323 0-.673 0-1.05.007-.379.007-.743.007-1.107.007h-2.858v8.584c0 .245.103.397.31.469.205.072.439.108.707.108.13 0 .247-.007.364-.022.117-.014.22-.043.316-.086a.574.574 0 00.227-.173.482.482 0 00.082-.296v-6.737h3.861c1.147 0 2.178-.101 3.098-.303.92-.202 1.704-.534 2.343-.988a4.534 4.534 0 001.477-1.79c.343-.735.515-1.637.515-2.697v-.151c0-1.068-.178-1.977-.55-2.713z" fill="url(#paint1_linear)"/><path fill-rule="evenodd" clip-rule="evenodd" d="M86.708 0c-.553 0-.997.47-.997 1.056v16.917c0 .571.437 1.027.97 1.027h4.8c5.41 0 9.008-3.486 9.008-9.51 0-6.004-3.599-9.49-9.007-9.49h-4.774zm11.719 9.482c0 5.106-2.718 7.609-7.13 7.609h-3.612V1.902h3.612c4.412 0 7.13 2.524 7.13 7.58z" fill="#000"/><defs><linearGradient id="paint0_linear" x1="14.766" y1="19.01" x2="14.766" y2=".007" gradientUnits="userSpaceOnUse"><stop stop-color="#009CDF"/><stop offset=".299" stop-color="#36B6F2"/><stop offset="1" stop-color="#33F3C3"/></linearGradient><linearGradient id="paint1_linear" x1="31.776" y1="19.012" x2="31.776" y2="-.005" gradientUnits="userSpaceOnUse"><stop stop-color="#009CDF"/><stop offset=".299" stop-color="#36B6F2"/><stop offset="1" stop-color="#33F3C3"/></linearGradient></defs></svg>